<?xml version="1.0" encoding="UTF-8" standalone="no"?>
<svg width="253px" height="203px" viewBox="0 0 253 203" version="1.1" xmlns="http://www.w3.org/2000/svg" xmlns:xlink="http://www.w3.org/1999/xlink" xmlns:sketch="http://www.bohemiancoding.com/sketch/ns">
    <!-- Generator: Sketch 3.3.3 (12081) - http://www.bohemiancoding.com/sketch -->
    <title>Shape</title>
    <desc>Created with Sketch.</desc>
    <defs></defs>
    <g id="Page-1" stroke="none" stroke-width="1" fill="none" fill-rule="evenodd" sketch:type="MSPage">
        <g id="ord-color" sketch:type="MSLayerGroup" fill="#8590B7">
            <g id="Page-1" sketch:type="MSShapeGroup">
                <g id="ord">
                    <path d="M179.184,121.664 L174.398,123.935 L174.115,192.227 L15.262,144.022 L14.958,66.618 L41.613,40.355 L64.017,74.212 L100.947209,36.9330488 L105.955464,41.8897138 C105.955464,41.8897138 92.79308,55.6183515 92.7930822,55.6183505 C92.7930845,55.6183495 118.765,89.838 118.765,89.838 L156.705113,51.8631292 L162.361149,56.8603864 L150.43,68.038 L181.096,113.11 L252.641,80.22 L207.75,23.67 L182.924,35.739 L159.557,11.605 L136.553,23.317 L113.546,0.251 L40.964,31.018 L0.383,72.286 L7.797,78.725 L7.958,151.83 L172.982,202.576 L174.076,202.223 L246.729,166.377 L246.053,90.222 L179.184,121.664 Z" id="Shape"></path>
                </g>
            </g>
        </g>
    </g>
</svg>