<?xml version="1.0" encoding="utf-8"?>
<!-- Generator: Adobe Illustrator 16.0.4, SVG Export Plug-In . SVG Version: 6.00 Build 0)  -->
<!DOCTYPE svg PUBLIC "-//W3C//DTD SVG 1.1//EN" "http://www.w3.org/Graphics/SVG/1.1/DTD/svg11.dtd">
<svg version="1.1" xmlns="http://www.w3.org/2000/svg" xmlns:xlink="http://www.w3.org/1999/xlink" x="0px" y="0px"
	 width="334.999px" height="405.849px" viewBox="0 0 334.999 405.849" enable-background="new 0 0 334.999 405.849"
	 xml:space="preserve">
<g id="Layer_2">
	<path fill="#99CA3C" d="M0,157.702l143.999,83.142l0.144,165.005C30.125,343.482-0.001,337.836,0.046,216.592
		c0.027-69.282,0,1.158,0,0L0,157.702z"/>
	<path fill="#F99D1C" stroke="#BE202E" stroke-width="8" stroke-linejoin="bevel" d="M53.541,352.928"/>
	<path fill="#99CA3C" d="M334.007,157.706l-143.999,83.142l-0.031,165.001c114.018-62.367,144.03-68.009,143.983-189.253
		c-0.025-69.282,0,1.158,0,0L334.007,157.706z"/>
	<polygon fill="#F7901E" points="83.661,95.625 254.003,0 2.003,104 83.003,96 254.003,0 334.999,104.283 166.999,201.275 	"/>
	<g id="Layer_4">
	</g>
</g>
</svg>
